<mxfile host="app.diagrams.net" modified="2024-01-18T05:56:02.363Z" agent="Mozilla/5.0 (Macintosh; Intel Mac OS X 10_15_7) AppleWebKit/537.36 (KHTML, like Gecko) Chrome/120.0.0.0 Safari/537.36" etag="fcgcGgOj7nOoznbMhJJe" version="22.1.17" type="github">
  <diagram name="Page-1" id="KfydnyV6p2WG9cMRB0td">
    <mxGraphModel dx="1434" dy="786" grid="1" gridSize="10" guides="1" tooltips="1" connect="1" arrows="1" fold="1" page="1" pageScale="1" pageWidth="827" pageHeight="1169" math="0" shadow="0">
      <root>
        <mxCell id="0" />
        <mxCell id="1" parent="0" />
        <mxCell id="z33pJoFwpU5PtiwpWnM1-3" value="" style="rounded=1;whiteSpace=wrap;html=1;gradientColor=none;arcSize=3;" vertex="1" parent="1">
          <mxGeometry x="110" y="70" width="340" height="570" as="geometry" />
        </mxCell>
        <mxCell id="z33pJoFwpU5PtiwpWnM1-2" value="" style="group" vertex="1" connectable="0" parent="1">
          <mxGeometry x="164" y="80" width="230" height="538" as="geometry" />
        </mxCell>
        <mxCell id="HySa8QMIsVt5VibjJ5JL-1" value="" style="sketch=0;points=[[0,0,0],[0.25,0,0],[0.5,0,0],[0.75,0,0],[1,0,0],[0,1,0],[0.25,1,0],[0.5,1,0],[0.75,1,0],[1,1,0],[0,0.25,0],[0,0.5,0],[0,0.75,0],[1,0.25,0],[1,0.5,0],[1,0.75,0]];outlineConnect=0;fontColor=#232F3E;fillColor=#E7157B;strokeColor=#ffffff;dashed=0;verticalLabelPosition=bottom;verticalAlign=top;align=center;html=1;fontSize=12;fontStyle=0;aspect=fixed;shape=mxgraph.aws4.resourceIcon;resIcon=mxgraph.aws4.sqs;" parent="z33pJoFwpU5PtiwpWnM1-2" vertex="1">
          <mxGeometry x="76" width="78" height="78" as="geometry" />
        </mxCell>
        <mxCell id="HySa8QMIsVt5VibjJ5JL-2" value="" style="sketch=0;points=[[0,0,0],[0.25,0,0],[0.5,0,0],[0.75,0,0],[1,0,0],[0,1,0],[0.25,1,0],[0.5,1,0],[0.75,1,0],[1,1,0],[0,0.25,0],[0,0.5,0],[0,0.75,0],[1,0.25,0],[1,0.5,0],[1,0.75,0]];outlineConnect=0;fontColor=#232F3E;fillColor=#ED7100;strokeColor=#ffffff;dashed=0;verticalLabelPosition=bottom;verticalAlign=top;align=center;html=1;fontSize=12;fontStyle=0;aspect=fixed;shape=mxgraph.aws4.resourceIcon;resIcon=mxgraph.aws4.lambda;" parent="z33pJoFwpU5PtiwpWnM1-2" vertex="1">
          <mxGeometry x="76" y="160" width="78" height="78" as="geometry" />
        </mxCell>
        <mxCell id="HySa8QMIsVt5VibjJ5JL-3" value="SNS" style="sketch=0;points=[[0,0,0],[0.25,0,0],[0.5,0,0],[0.75,0,0],[1,0,0],[0,1,0],[0.25,1,0],[0.5,1,0],[0.75,1,0],[1,1,0],[0,0.25,0],[0,0.5,0],[0,0.75,0],[1,0.25,0],[1,0.5,0],[1,0.75,0]];outlineConnect=0;fontColor=#232F3E;fillColor=#E7157B;strokeColor=#ffffff;dashed=0;verticalLabelPosition=bottom;verticalAlign=top;align=center;html=1;fontSize=12;fontStyle=0;aspect=fixed;shape=mxgraph.aws4.resourceIcon;resIcon=mxgraph.aws4.sns;" parent="z33pJoFwpU5PtiwpWnM1-2" vertex="1">
          <mxGeometry x="76" y="460" width="78" height="78" as="geometry" />
        </mxCell>
        <mxCell id="HySa8QMIsVt5VibjJ5JL-5" style="edgeStyle=orthogonalEdgeStyle;rounded=0;orthogonalLoop=1;jettySize=auto;html=1;exitX=0.5;exitY=1;exitDx=0;exitDy=0;exitPerimeter=0;entryX=0.5;entryY=0;entryDx=0;entryDy=0;entryPerimeter=0;" parent="z33pJoFwpU5PtiwpWnM1-2" source="HySa8QMIsVt5VibjJ5JL-1" target="HySa8QMIsVt5VibjJ5JL-2" edge="1">
          <mxGeometry relative="1" as="geometry" />
        </mxCell>
        <mxCell id="HySa8QMIsVt5VibjJ5JL-9" value="&lt;font style=&quot;font-size: 15px;&quot;&gt;Task&lt;/font&gt;" style="edgeLabel;html=1;align=center;verticalAlign=middle;resizable=0;points=[];" parent="HySa8QMIsVt5VibjJ5JL-5" vertex="1" connectable="0">
          <mxGeometry x="0.0244" relative="1" as="geometry">
            <mxPoint y="-5" as="offset" />
          </mxGeometry>
        </mxCell>
        <mxCell id="HySa8QMIsVt5VibjJ5JL-8" style="edgeStyle=orthogonalEdgeStyle;rounded=0;orthogonalLoop=1;jettySize=auto;html=1;entryX=1;entryY=0.5;entryDx=0;entryDy=0;entryPerimeter=0;exitX=1;exitY=0.5;exitDx=0;exitDy=0;" parent="z33pJoFwpU5PtiwpWnM1-2" source="HySa8QMIsVt5VibjJ5JL-14" target="HySa8QMIsVt5VibjJ5JL-1" edge="1">
          <mxGeometry relative="1" as="geometry">
            <Array as="points">
              <mxPoint x="216" y="310" />
              <mxPoint x="216" y="39" />
            </Array>
          </mxGeometry>
        </mxCell>
        <mxCell id="HySa8QMIsVt5VibjJ5JL-11" value="&lt;font style=&quot;font-size: 15px;&quot;&gt;Re-put wtih &lt;br&gt;remaining delay&lt;/font&gt;" style="edgeLabel;html=1;align=center;verticalAlign=middle;resizable=0;points=[];" parent="HySa8QMIsVt5VibjJ5JL-8" vertex="1" connectable="0">
          <mxGeometry x="-0.0804" y="2" relative="1" as="geometry">
            <mxPoint as="offset" />
          </mxGeometry>
        </mxCell>
        <mxCell id="HySa8QMIsVt5VibjJ5JL-18" value="&lt;font style=&quot;font-size: 15px;&quot;&gt;NO&lt;/font&gt;" style="edgeLabel;html=1;align=center;verticalAlign=middle;resizable=0;points=[];" parent="HySa8QMIsVt5VibjJ5JL-8" vertex="1" connectable="0">
          <mxGeometry x="-0.8325" y="1" relative="1" as="geometry">
            <mxPoint as="offset" />
          </mxGeometry>
        </mxCell>
        <object placeholders="1" c4Name="Task Consumer" c4Type="ContainerScopeBoundary" c4Application="Listener" label="&lt;font style=&quot;font-size: 16px&quot;&gt;&lt;b&gt;&lt;div style=&quot;text-align: left&quot;&gt;%c4Name%&lt;/div&gt;&lt;/b&gt;&lt;/font&gt;&lt;div style=&quot;text-align: left&quot;&gt;[%c4Application%]&lt;/div&gt;" id="HySa8QMIsVt5VibjJ5JL-13">
          <mxCell style="rounded=1;fontSize=11;whiteSpace=wrap;html=1;dashed=1;arcSize=20;fillColor=none;strokeColor=#666666;fontColor=#333333;labelBackgroundColor=none;align=left;verticalAlign=bottom;labelBorderColor=none;spacingTop=0;spacing=10;dashPattern=8 4;metaEdit=1;rotatable=0;perimeter=rectanglePerimeter;noLabel=0;labelPadding=0;allowArrows=0;connectable=0;expand=0;recursiveResize=0;editable=1;pointerEvents=0;absoluteArcSize=1;points=[[0.25,0,0],[0.5,0,0],[0.75,0,0],[1,0.25,0],[1,0.5,0],[1,0.75,0],[0.75,1,0],[0.5,1,0],[0.25,1,0],[0,0.75,0],[0,0.5,0],[0,0.25,0]];" parent="z33pJoFwpU5PtiwpWnM1-2" vertex="1">
            <mxGeometry y="140" width="230" height="260" as="geometry" />
          </mxCell>
        </object>
        <mxCell id="HySa8QMIsVt5VibjJ5JL-14" value="Delay&lt;br&gt;Expired&lt;br&gt;?" style="rhombus;whiteSpace=wrap;html=1;" parent="z33pJoFwpU5PtiwpWnM1-2" vertex="1">
          <mxGeometry x="75" y="270" width="80" height="80" as="geometry" />
        </mxCell>
        <mxCell id="HySa8QMIsVt5VibjJ5JL-15" style="edgeStyle=orthogonalEdgeStyle;rounded=0;orthogonalLoop=1;jettySize=auto;html=1;entryX=0.5;entryY=0;entryDx=0;entryDy=0;" parent="z33pJoFwpU5PtiwpWnM1-2" source="HySa8QMIsVt5VibjJ5JL-2" target="HySa8QMIsVt5VibjJ5JL-14" edge="1">
          <mxGeometry relative="1" as="geometry" />
        </mxCell>
        <mxCell id="HySa8QMIsVt5VibjJ5JL-16" style="edgeStyle=orthogonalEdgeStyle;rounded=0;orthogonalLoop=1;jettySize=auto;html=1;entryX=0.5;entryY=0;entryDx=0;entryDy=0;entryPerimeter=0;" parent="z33pJoFwpU5PtiwpWnM1-2" source="HySa8QMIsVt5VibjJ5JL-14" target="HySa8QMIsVt5VibjJ5JL-3" edge="1">
          <mxGeometry relative="1" as="geometry" />
        </mxCell>
        <mxCell id="HySa8QMIsVt5VibjJ5JL-17" value="&lt;font style=&quot;font-size: 15px;&quot;&gt;Yes&lt;/font&gt;" style="edgeLabel;html=1;align=center;verticalAlign=middle;resizable=0;points=[];" parent="HySa8QMIsVt5VibjJ5JL-16" vertex="1" connectable="0">
          <mxGeometry x="-0.2" y="2" relative="1" as="geometry">
            <mxPoint x="-3" y="-8" as="offset" />
          </mxGeometry>
        </mxCell>
        <mxCell id="HySa8QMIsVt5VibjJ5JL-21" value="&lt;font style=&quot;font-size: 15px;&quot;&gt;Task&lt;/font&gt;" style="edgeLabel;html=1;align=center;verticalAlign=middle;resizable=0;points=[];" parent="HySa8QMIsVt5VibjJ5JL-16" vertex="1" connectable="0">
          <mxGeometry x="0.2" y="1" relative="1" as="geometry">
            <mxPoint as="offset" />
          </mxGeometry>
        </mxCell>
      </root>
    </mxGraphModel>
  </diagram>
</mxfile>
